# xmcd
# 
# Track frame offsets:
#     150
#     18540
#     36215
#     54370
#     82765
#     99607
#     118050
#     136270
#     158722
#     174490
#     189290
#     205282
#     226920
#     244715
# 
# Disc length: 3576
# 
# Revision: 0
# Processed by: cddbd v1.5.2PL0 Copyright (c) Steve Scherf et al.
# Submitted via: fre:ac v1.0.17
# 
DISCID=ab0df60e
DTITLE=Sai Htee Seng - The Bests Of Sai Htee Seng
DYEAR=0
DGENRE=Country
TTITLE0=Lwan Tae
TTITLE1=Moe Linn Moe
TTITLE2=Maunt Ah Yine Pann
TTITLE3=Maunt La Pyay Wun
TTITLE4=The Wild Ones (2)
TTITLE5=Lann Hnit Thwe
TTITLE6=Sai Pyan Ya Ohn Mae
TTITLE7=Sate Nyoh Shin
TTITLE8=The Wild Ones (1)
TTITLE9=AhChit Ah Twet TaPhan Mway Phwar Chin
TTITLE10=Nay Yar Tine Hmar
TTITLE11=Lay Nyar Ah Yat Ka Ah Chit
TTITLE12=HnaLone LannKyaung Mhar Kyun Khan Nay Tae
TTITLE13=May Myo Moe
EXTD=
EXTT0=
EXTT1=
EXTT2=
EXTT3=
EXTT4=
EXTT5=
EXTT6=
EXTT7=
EXTT8=
EXTT9=
EXTT10=
EXTT11=
EXTT12=
EXTT13=
PLAYORDER=
